HIERARCHY
ROOT Hips
{
	OFFSET 0.00000 0.00000 0.00000
	CHANNELS 6 Xposition Yposition Zposition Zrotation Yrotation Xrotation 
	JOINT LHipJoint
	{
		OFFSET 0 0 0
		CHANNELS 3 Zrotation Yrotation Xrotation
		JOINT LeftUpLeg
		{
			OFFSET 1.28366 -1.58472 0.87544
			CHANNELS 3 Zrotation Yrotation Xrotation
			JOINT LeftLeg
			{
				OFFSET 2.18587 -6.00562 0.00000
				CHANNELS 3 Zrotation Yrotation Xrotation
				JOINT LeftFoot
				{
					OFFSET 2.39085 -6.56880 0.00000
					CHANNELS 3 Zrotation Yrotation Xrotation
					JOINT LeftToeBase
					{
						OFFSET 0.12003 -0.32979 2.03101
						CHANNELS 3 Zrotation Yrotation Xrotation
						End Site
						{
							OFFSET 0.00000 -0.00000 1.04074
						}
					}
				}
			}
		}
	}
	JOINT RHipJoint
	{
		OFFSET 0 0 0
		CHANNELS 3 Zrotation Yrotation Xrotation
		JOINT RightUpLeg
		{
			OFFSET -1.21795 -1.58472 0.87544
			CHANNELS 3 Zrotation Yrotation Xrotation
			JOINT RightLeg
			{
				OFFSET -2.22714 -6.11902 0.00000
				CHANNELS 3 Zrotation Yrotation Xrotation
				JOINT RightFoot
				{
					OFFSET -2.40306 -6.60235 0.00000
					CHANNELS 3 Zrotation Yrotation Xrotation
					JOINT RightToeBase
					{
						OFFSET -0.15519 -0.42640 1.91430
						CHANNELS 3 Zrotation Yrotation Xrotation
						End Site
						{
							OFFSET -0.00000 -0.00000 0.99082
						}
					}
				}
			}
		}
	}
	JOINT LowerBack
	{
		OFFSET 0 0 0
		CHANNELS 3 Zrotation Yrotation Xrotation
		JOINT Spine
		{
			OFFSET 0.01180 1.76430 -0.06387
			CHANNELS 3 Zrotation Yrotation Xrotation
			JOINT Spine1
			{
				OFFSET -0.00388 1.74651 0.09536
				CHANNELS 3 Zrotation Yrotation Xrotation
				JOINT Neck
				{
					OFFSET 0 0 0
					CHANNELS 3 Zrotation Yrotation Xrotation
					JOINT Neck1
					{
						OFFSET 0.04111 1.46174 0.14397
						CHANNELS 3 Zrotation Yrotation Xrotation
						JOINT Head
						{
							OFFSET 0.00502 1.44580 -0.31711
							CHANNELS 3 Zrotation Yrotation Xrotation
							End Site
							{
								OFFSET -0.00395 1.49251 -0.12327
							}
						}
					}
				}
				JOINT LeftShoulder
				{
					OFFSET 0 0 0
					CHANNELS 3 Zrotation Yrotation Xrotation
					JOINT LeftArm
					{
						OFFSET 2.70917 1.34870 -0.15417
						CHANNELS 3 Zrotation Yrotation Xrotation
						JOINT LeftForeArm
						{
							OFFSET 4.46610 -0.00000 -0.00000
							CHANNELS 3 Zrotation Yrotation Xrotation
							JOINT LeftHand
							{
								OFFSET 3.41414 -0.00000 0.00000
								CHANNELS 3 Zrotation Yrotation Xrotation
								JOINT LeftFingerBase
								{
									OFFSET 0 0 0
									CHANNELS 3 Zrotation Yrotation Xrotation
									JOINT LeftHandIndex1
									{
										OFFSET 0.32830 -0.00000 0.00000
										CHANNELS 3 Zrotation Yrotation Xrotation
										End Site
										{
											OFFSET 0.26468 -0.00000 0.00000
										}
									}
								}
								JOINT LThumb
								{
									OFFSET 0 0 0
									CHANNELS 3 Zrotation Yrotation Xrotation
									End Site
									{
										OFFSET 0.26872 -0.00000 0.26872
									}
								}
							}
						}
					}
				}
				JOINT RightShoulder
				{
					OFFSET 0 0 0
					CHANNELS 3 Zrotation Yrotation Xrotation
					JOINT RightArm
					{
						OFFSET -3.06316 1.13725 -0.10883
						CHANNELS 3 Zrotation Yrotation Xrotation
						JOINT RightForeArm
						{
							OFFSET -4.40431 -0.00000 0.00000
							CHANNELS 3 Zrotation Yrotation Xrotation
							JOINT RightHand
							{
								OFFSET -3.04688 -0.00000 0.00000
								CHANNELS 3 Zrotation Yrotation Xrotation
								JOINT RightFingerBase
								{
									OFFSET 0 0 0
									CHANNELS 3 Zrotation Yrotation Xrotation
									JOINT RightHandIndex1
									{
										OFFSET -0.50049 -0.00000 0.00000
										CHANNELS 3 Zrotation Yrotation Xrotation
										End Site
										{
											OFFSET -0.40351 -0.00000 0.00000
										}
									}
								}
								JOINT RThumb
								{
									OFFSET 0 0 0
									CHANNELS 3 Zrotation Yrotation Xrotation
									End Site
									{
										OFFSET -0.40967 -0.00000 0.40967
									}
								}
							}
						}
					}
				}
			}
		}
	}
}
MOTION
Frames: 16
Frame Time: .0083333
3.6739 12.4332 7.8516 0 0 0 0 0 0 -21 0 0 0 0 0 0 0 0 0 0 0 0 0 0 21 0 0 0 0 0 0 0 0 0 0 0 0 0 0 0 0 0 0 0 0 0 0 -16 0 0 21 0 0 11 0 0 0 -8 0 0 0 0 0 0 0 0 0 0 0 0 0 0 0 0 0 0 0 0 8 0 0 0 0 0 0 0 0 0 0 0 0 0 0 0 0 0
3.6739 12.4332 7.8516 -176.5200 4.4807 -174.8800 0.0000 0.0000 0.0000 -9.7634 30.3789 -55.2850 19.5945 19.9961 88.8144 3.7345 -2.8132 -35.9946 0.0020 0.2874 0.7896 0.0000 0.0000 0.0000 14.8195 -31.0725 -60.9252 -19.0743 -19.9794 87.2925 -2.4128 13.6320 -28.1639 -0.2591 -3.2747 9.0446 2.1989 2.9319 6.0630 -0.6299 4.3101 -5.6489 -2.5032 2.0073 -9.1748 -1.7929 -0.3072 -20.6834 8.3527 -3.1364 24.8947 2.8455 -0.8266 11.7719 0.0000 0.0000 0.0000 6.9949 -4.4221 41.0200 41.4833 -48.9245 -19.5501 -0.0000 0.0000 -23.1661 8.9203 -4.7948 -0.7517 -7.1250 0.0000 -0.0000 -13.2386 25.1079 6.5374 0.0000 0.0000 0.0000 2.7986 -1.7255 43.9649 -38.1420 46.9298 -17.0692 0.0000 -0.0000 -15.0511 -13.1897 19.4097 -4.4533 7.1250 -0.0000 -0.0000 9.7614 -10.3099 7.9765
3.6793 12.4378 7.8517 -176.5340 4.4420 -174.8710 0.0000 0.0000 0.0000 -9.7745 30.3980 -55.2825 19.5621 19.9954 88.7197 3.7269 -2.8648 -35.9452 0.0031 0.3582 0.9841 0.0000 0.0000 0.0000 14.8486 -31.0476 -60.8884 -19.0506 -19.9784 87.2232 -2.4274 13.5346 -28.2360 -0.2510 -3.2238 8.9023 2.1882 2.9107 6.0258 -0.6281 4.2815 -5.6589 -2.4896 1.9951 -9.1661 -1.7792 -0.2523 -20.7082 8.3900 -3.0739 24.8982 2.8676 -0.7916 11.7749 -0.0000 0.0000 0.0000 6.9347 -4.3171 41.0309 41.5029 -48.9355 -19.5650 -0.0000 0.0000 -23.1800 9.0388 -4.7797 -0.7594 -7.1250 0.0000 -0.0000 -13.1528 25.1216 6.4885 -0.0000 0.0000 0.0000 2.8466 -1.6853 43.9269 -38.1261 46.9197 -17.0577 0.0000 -0.0000 -15.0066 -13.1754 19.3768 -4.4411 7.1250 -0.0000 -0.0000 9.7699 -10.3443 7.9767
3.6838 12.4471 7.8510 -176.5670 4.4134 -174.8720 0.0000 0.0000 0.0000 -9.8056 30.3144 -55.1999 19.5135 19.9943 88.5774 3.7214 -2.8214 -35.9270 0.0034 0.3753 1.0311 0.0000 0.0000 0.0000 14.8343 -31.0072 -60.8130 -19.0127 -19.9766 87.1123 -2.4328 13.5023 -28.2635 -0.2589 -3.2735 9.0411 2.1468 2.9273 5.9974 -0.6329 4.2999 -5.6668 -2.4727 2.0073 -9.1595 -1.7028 -0.2378 -20.7333 8.3441 -3.0649 24.9052 2.8392 -0.7847 11.7804 -0.0000 -0.0000 0.0000 6.8676 -4.3287 41.0135 41.4959 -48.9316 -19.5597 -0.0000 0.0000 -23.1866 9.0870 -4.8226 -0.7704 -7.1250 0.0000 -0.0000 -13.1132 25.0789 6.4814 -0.0000 -0.0000 0.0000 2.8642 -1.7674 43.9281 -38.1468 46.9328 -17.0728 0.0000 -0.0000 -14.9814 -13.3082 19.3559 -4.4827 7.1250 -0.0000 -0.0000 9.6837 -10.3517 7.9027
3.6907 12.4573 7.8509 -176.5930 4.3867 -174.8720 0.0000 0.0000 0.0000 -9.8157 30.1777 -55.0882 19.4634 19.9931 88.4310 3.7134 -2.6610 -35.9221 0.0022 0.3046 0.8370 0.0000 0.0000 0.0000 14.8676 -30.9655 -60.7190 -18.9723 -19.9747 86.9940 -2.4533 13.3420 -28.3629 -0.2390 -3.1463 8.6863 2.0876 2.9392 5.9725 -0.6294 4.3112 -5.6773 -2.4364 2.0174 -9.1601 -1.6629 -0.2241 -20.7355 8.3425 -3.0535 24.8758 2.8330 -0.7753 11.7684 -0.0000 -0.0000 0.0000 6.7636 -4.3108 40.9589 41.4812 -48.9234 -19.5486 -0.0000 0.0000 -23.1400 9.1001 -4.8352 -0.7735 -7.1250 0.0000 -0.0000 -13.1022 25.0664 6.4796 -0.0000 -0.0000 0.0000 2.8826 -1.8396 43.9784 -38.0830 46.8922 -17.0261 0.0000 -0.0000 -14.7195 -13.6910 19.5635 -4.6634 7.1250 -0.0000 -0.0000 9.4416 -10.1030 7.7477
3.6946 12.4641 7.8504 -176.5930 4.3495 -174.8660 0.0000 0.0000 0.0000 -9.8064 30.1607 -55.0529 19.4233 19.9920 88.3135 3.7033 -2.6818 -35.8669 0.0025 0.3209 0.8816 0.0000 0.0000 0.0000 14.9064 -30.9427 -60.6650 -18.9378 -19.9729 86.8930 -2.4613 13.2480 -28.3993 -0.2325 -3.1031 8.5659 2.0866 2.9328 5.9239 -0.6225 4.3033 -5.6817 -2.4244 2.0151 -9.1371 -1.6158 -0.1888 -20.7332 8.3495 -3.0181 24.8530 2.8328 -0.7538 11.7568 0.0000 0.0000 0.0000 6.6913 -4.2883 40.9272 41.4293 -48.8943 -19.5095 -0.0000 0.0000 -23.0801 9.0985 -4.8224 -0.7713 -7.1250 0.0000 -0.0000 -13.1047 25.0790 6.4769 0.0000 0.0000 0.0000 2.9364 -1.8304 43.8826 -38.0365 46.8626 -16.9922 0.0000 -0.0000 -14.6906 -13.6111 19.5893 -4.6411 7.1250 -0.0000 -0.0000 9.4937 -10.0855 7.7952
3.6995 12.4722 7.8501 -176.6070 4.3174 -174.8620 0.0000 0.0000 0.0000 -9.8144 30.1040 -54.9888 19.3781 19.9907 88.1815 3.6952 -2.6421 -35.8349 0.0024 0.3173 0.8717 0.0000 0.0000 0.0000 14.9319 -30.9107 -60.5957 -18.9007 -19.9710 86.7843 -2.4720 13.1459 -28.4502 -0.2246 -3.0504 8.4190 2.0549 2.9365 5.8885 -0.6142 4.3065 -5.6899 -2.3966 2.0199 -9.1279 -1.5866 -0.1659 -20.7418 8.3540 -2.9946 24.8431 2.8332 -0.7393 11.7531 0.0000 0.0000 0.0000 6.6128 -4.2761 40.9004 41.4005 -48.8781 -19.4878 -0.0000 0.0000 -23.0446 9.0946 -4.8335 -0.7728 -7.1250 0.0000 -0.0000 -13.1065 25.0681 6.4813 0.0000 0.0000 0.0000 2.9626 -1.8624 43.8554 -37.9960 46.8368 -16.9627 0.0000 -0.0000 -14.5986 -13.6916 19.6593 -4.6854 7.1250 -0.0000 -0.0000 9.4437 -10.0066 7.7682
3.7042 12.4807 7.8496 -176.6210 4.2854 -174.8580 0.0000 0.0000 0.0000 -9.8232 30.0459 -54.9225 19.3332 19.9893 88.0500 3.6881 -2.6041 -35.8074 0.0024 0.3149 0.8653 0.0000 0.0000 0.0000 14.9572 -30.8786 -60.5255 -18.8638 -19.9690 86.6763 -2.4820 13.0480 -28.4978 -0.2176 -3.0027 8.2862 2.0216 2.9413 5.8519 -0.6037 4.3113 -5.6981 -2.3656 2.0257 -9.1182 -1.5662 -0.1459 -20.7533 8.3637 -2.9747 24.8383 2.8366 -0.7265 11.7524 -0.0000 0.0000 0.0000 6.5377 -4.2724 40.8750 41.3659 -48.8586 -19.4617 -0.0000 0.0000 -23.0056 9.0683 -4.8440 -0.7722 -7.1250 0.0000 -0.0000 -13.1248 25.0579 6.4940 -0.0000 0.0000 0.0000 2.9858 -1.8937 43.8214 -37.9624 46.8153 -16.9381 0.0000 -0.0000 -14.5386 -13.6942 19.6853 -4.6923 7.1250 -0.0000 -0.0000 9.4427 -9.9801 7.7725
3.7087 12.4891 7.8491 -176.6340 4.2532 -174.8540 0.0000 0.0000 0.0000 -9.8336 29.9969 -54.8587 19.2871 19.9878 87.9153 3.6801 -2.5687 -35.7751 0.0023 0.3087 0.8482 0.0000 0.0000 0.0000 14.9814 -30.8477 -60.4551 -18.8263 -19.9669 86.5664 -2.4908 12.9530 -28.5392 -0.2110 -2.9573 8.1598 1.9873 2.9445 5.8152 -0.5909 4.3141 -5.7062 -2.3313 2.0307 -9.1086 -1.5521 -0.1249 -20.7665 8.3776 -2.9531 24.8380 2.8431 -0.7131 11.7537 0.0000 0.0000 0.0000 6.4673 -4.2668 40.8537 41.3290 -48.8379 -19.4339 -0.0000 0.0000 -22.9617 9.0288 -4.8463 -0.7691 -7.1250 0.0000 -0.0000 -13.1536 25.0561 6.5096 0.0000 0.0000 0.0000 3.0042 -1.9172 43.7859 -37.9399 46.8009 -16.9218 0.0000 -0.0000 -14.5188 -13.6181 19.6628 -4.6603 7.1250 -0.0000 -0.0000 9.4911 -10.0108 7.8075
3.7128 12.4974 7.8486 -176.6460 4.2206 -174.8490 0.0000 0.0000 0.0000 -9.8456 29.9525 -54.7973 19.2412 19.9862 87.7810 3.6721 -2.5409 -35.7409 0.0023 0.3065 0.8422 0.0000 0.0000 0.0000 15.0045 -30.8187 -60.3861 -18.7885 -19.9648 86.4558 -2.4984 12.8633 -28.5748 -0.2054 -2.9181 8.0508 1.9555 2.9462 5.7768 -0.5781 4.3149 -5.7136 -2.2980 2.0346 -9.0972 -1.5374 -0.1024 -20.7821 8.3925 -2.9308 24.8418 2.8500 -0.6992 11.7571 0.0000 -0.0000 0.0000 6.4066 -4.2591 40.8371 41.2914 -48.8167 -19.4056 -0.0000 0.0000 -22.9158 8.9858 -4.8477 -0.7656 -7.1250 0.0000 -0.0000 -13.1852 25.0551 6.5263 0.0000 -0.0000 0.0000 3.0212 -1.9335 43.7479 -37.9322 46.7959 -16.9161 0.0000 -0.0000 -14.5476 -13.4585 19.5777 -4.5847 7.1250 -0.0000 -0.0000 9.5919 -10.1133 7.8726
3.7167 12.5059 7.8480 -176.6590 4.1888 -174.8470 0.0000 0.0000 0.0000 -9.8586 29.9087 -54.7316 19.1952 19.9845 87.6462 3.6639 -2.5106 -35.7065 0.0022 0.3022 0.8302 0.0000 0.0000 0.0000 15.0237 -30.7908 -60.3130 -18.7501 -19.9625 86.3432 -2.5048 12.7827 -28.6042 -0.2014 -2.8898 7.9721 1.9245 2.9482 5.7419 -0.5665 4.3161 -5.7204 -2.2668 2.0385 -9.0871 -1.5219 -0.0801 -20.7995 8.4089 -2.9103 24.8500 2.8572 -0.6859 11.7627 -0.0000 -0.0000 0.0000 6.3571 -4.2518 40.8253 41.2549 -48.7960 -19.3781 -0.0000 0.0000 -22.8704 8.9432 -4.8490 -0.7621 -7.1250 0.0000 -0.0000 -13.2165 25.0542 6.5429 -0.0000 -0.0000 0.0000 3.0364 -1.9499 43.7188 -37.9328 46.7963 -16.9166 0.0000 -0.0000 -14.5989 -13.2630 19.4562 -4.4891 7.1250 -0.0000 -0.0000 9.7151 -10.2557 7.9484
3.7204 12.5144 7.8473 -176.6700 4.1582 -174.8470 0.0000 0.0000 0.0000 -9.8706 29.8715 -54.6664 19.1500 19.9827 87.5139 3.6554 -2.4822 -35.6698 0.0021 0.2947 0.8099 0.0000 0.0000 0.0000 15.0419 -30.7635 -60.2379 -18.7114 -19.9601 86.2299 -2.5105 12.7078 -28.6305 -0.1986 -2.8699 7.9168 1.8984 2.9506 5.7069 -0.5571 4.3181 -5.7259 -2.2406 2.0424 -9.0748 -1.5046 -0.0586 -20.8152 8.4282 -2.8925 24.8567 2.8647 -0.6734 11.7677 0.0000 0.0000 0.0000 6.3199 -4.2438 40.8162 41.2196 -48.7761 -19.3516 -0.0000 0.0000 -22.8271 8.9035 -4.8486 -0.7586 -7.1250 0.0000 -0.0000 -13.2457 25.0551 6.5579 0.0000 0.0000 0.0000 3.0519 -1.9675 43.6953 -37.9407 46.8014 -16.9224 0.0000 -0.0000 -14.6687 -13.0440 19.3043 -4.3797 7.1250 -0.0000 -0.0000 9.8532 -10.4305 8.0293
3.7237 12.5227 7.8466 -176.6780 4.1281 -174.8480 0.0000 0.0000 0.0000 -9.8790 29.8375 -54.6025 19.1061 19.9808 87.3857 3.6464 -2.4566 -35.6301 0.0020 0.2875 0.7898 0.0000 0.0000 0.0000 15.0617 -30.7387 -60.1619 -18.6726 -19.9577 86.1163 -2.5155 12.6369 -28.6533 -0.1964 -2.8539 7.8721 1.8795 2.9522 5.6718 -0.5495 4.3194 -5.7296 -2.2201 2.0454 -9.0601 -1.4797 -0.0361 -20.8299 8.4450 -2.8754 24.8629 2.8698 -0.6610 11.7722 0.0000 -0.0000 0.0000 6.2944 -4.2314 40.8093 41.1873 -48.7578 -19.3273 -0.0000 0.0000 -22.7868 8.8678 -4.8459 -0.7551 -7.1250 0.0000 -0.0000 -13.2722 25.0580 6.5708 0.0000 -0.0000 0.0000 3.0683 -1.9830 43.6789 -37.9497 46.8071 -16.9289 0.0000 -0.0000 -14.7364 -12.8238 19.1361 -4.2675 7.1250 -0.0000 -0.0000 9.9925 -10.6213 8.1070
3.7268 12.5309 7.8459 -176.6850 4.0992 -174.8510 0.0000 0.0000 0.0000 -9.8867 29.8103 -54.5406 19.0639 19.9790 87.2620 3.6373 -2.4373 -35.5884 0.0019 0.2819 0.7744 0.0000 0.0000 0.0000 15.0796 -30.7149 -60.0850 -18.6342 -19.9552 86.0037 -2.5200 12.5715 -28.6734 -0.1952 -2.8451 7.8478 1.8658 2.9526 5.6394 -0.5446 4.3193 -5.7334 -2.2053 2.0472 -9.0464 -1.4475 -0.0125 -20.8400 8.4599 -2.8588 24.8667 2.8727 -0.6485 11.7748 -0.0000 -0.0000 0.0000 6.2799 -4.2129 40.8071 41.1577 -48.7410 -19.3051 -0.0000 0.0000 -22.7491 8.8414 -4.8384 -0.7517 -7.1250 0.0000 -0.0000 -13.2925 25.0657 6.5789 -0.0000 -0.0000 0.0000 3.0854 -1.9976 43.6761 -37.9482 46.8062 -16.9278 0.0000 -0.0000 -14.7715 -12.6595 18.9993 -4.1823 7.1250 -0.0000 -0.0000 10.0965 -10.7746 8.1621
3.7294 12.5389 7.8451 -176.6910 4.0720 -174.8560 0.0000 0.0000 0.0000 -9.8932 29.7913 -54.4821 19.0230 19.9771 87.1425 3.6282 -2.4257 -35.5449 0.0019 0.2806 0.7710 0.0000 0.0000 0.0000 15.0970 -30.6921 -60.0080 -18.5960 -19.9527 85.8918 -2.5240 12.5082 -28.6916 -0.1943 -2.8385 7.8295 1.8604 2.9517 5.6084 -0.5421 4.3181 -5.7362 -2.1976 2.0478 -9.0318 -1.4132 0.0123 -20.8467 8.4766 -2.8418 24.8688 2.8759 -0.6356 11.7761 0.0000 0.0000 0.0000 6.2743 -4.1879 40.8077 41.1305 -48.7256 -19.2846 -0.0000 0.0000 -22.7141 8.8229 -4.8248 -0.7480 -7.1250 0.0000 -0.0000 -13.3075 25.0793 6.5824 0.0000 0.0000 0.0000 3.1055 -2.0082 43.6798 -37.9276 46.7930 -16.9128 0.0000 -0.0000 -14.7620 -12.5547 18.9130 -4.1286 7.1250 -0.0000 -0.0000 10.1631 -10.8713 8.1973
3.7317 12.5468 7.8443 -176.6960 4.0458 -174.8610 0.0000 0.0000 0.0000 -9.9013 29.7712 -54.4240 18.9830 19.9752 87.0254 3.6199 -2.4153 -35.5048 0.0019 0.2844 0.7813 0.0000 0.0000 0.0000 15.1125 -30.6708 -59.9313 -18.5580 -19.9501 85.7806 -2.5275 12.4484 -28.7071 -0.1938 -2.8349 7.8194 1.8556 2.9514 5.5797 -0.5384 4.3179 -5.7396 -2.1892 2.0489 -9.0192 -1.3785 0.0357 -20.8513 8.4889 -2.8256 24.8719 2.8773 -0.6237 11.7773 -0.0000 -0.0000 0.0000 6.2704 -4.1639 40.8126 41.1035 -48.7103 -19.2643 -0.0000 0.0000 -22.6835 8.8122 -4.8209 -0.7464 -7.1250 0.0000 -0.0000 -13.3157 25.0833 6.5854 -0.0000 -0.0000 0.0000 3.1198 -2.0220 43.6935 -37.8926 46.7706 -16.8873 0.0000 -0.0000 -14.7093 -12.5026 18.8748 -4.1030 7.1250 -0.0000 -0.0000 10.1963 -10.9146 8.2158
